<svg
            xmlns="http://www.w3.org/2000/svg"
            viewBox="0 0 24 24"
            fill="currentColor"
            width="36px"
            height="36px"
            color="white"
          >
            <path d="M7 18c-1.1 0-2 .9-2 2s.9 2 2 2 2-.9 2-2-.9-2-2-2zm10 0c-1.1 0-2 .9-2 2s.9 2 2 2 2-.9 2-2-.9-2-2-2zM7.82 11.28L8.24 14h7.53l.38-2.72H7.82zM20.9 7.22C20.71 6.85 20.36 6.62 19.95 6.5L7.21 3.59 6.36 2H2V4h3.45l3.76 10.61.62 2.54C10.34 17.66 10.78 18 11.3 18H17v-2H11.52l-.62-2.61L19 14v-2H7.56L7.4 9h12.67l1.28-2.78c.11-.25.11-.53 0-.8-.11-.26-.35-.47-.64-.6-.03 0-.06-.01-.09-.01h-.13zM6.16 7L5.13 4h13.74l1.04 2.34H6.16z" />


          </svg>